<?xml version="1.0" standalone="no"?>
<!DOCTYPE svg PUBLIC "-//W3C//DTD SVG 20010904//EN"
 "http://www.w3.org/TR/2001/REC-SVG-20010904/DTD/svg10.dtd">
<svg version="1.0" xmlns="http://www.w3.org/2000/svg"
 width="640.000000pt" height="640.000000pt" viewBox="0 0 640.000000 640.000000"
 preserveAspectRatio="xMidYMid meet">
<metadata>
Created by potrace 1.11, written by Peter Selinger 2001-2013
</metadata>
<g transform="translate(0.000000,640.000000) scale(0.100000,-0.100000)"
fill="#000000" stroke="none">
<path d="M3795 6368 c-2 -7 -23 -101 -46 -208 -22 -107 -41 -196 -42 -197 -1
0 -65 -9 -142 -18 -631 -76 -1199 -424 -1543 -946 l-57 -86 -75 -22 c-207 -61
-436 -170 -640 -306 -912 -607 -1299 -1725 -958 -2763 113 -344 302 -654 563
-921 249 -255 529 -443 859 -575 99 -40 105 -44 70 -45 -64 -1 -324 -51 -369
-70 -81 -35 -115 -55 -129 -76 -16 -24 -15 -27 1 -51 10 -14 43 -37 73 -52
l55 -27 1205 -3 1206 -2 47 30 c54 34 61 63 25 97 -27 25 -96 57 -158 74 -25
7 -49 14 -55 15 -63 19 -215 46 -271 47 l-72 2 37 14 c406 153 659 307 922
559 387 371 629 829 720 1363 30 180 33 542 6 719 -57 359 -175 673 -365 964
-402 614 -1043 1009 -1782 1097 -58 7 -171 13 -252 13 -82 1 -148 4 -148 7 0
10 175 175 235 221 235 178 479 287 771 345 74 15 136 25 138 22 2 -2 -14 -91
-37 -197 -22 -105 -38 -194 -35 -197 5 -5 95 24 816 258 l343 112 -422 380
c-505 455 -488 440 -494 423z m-837 -1530 c10 -10 14 -10 21 0 5 8 26 11 67 8
32 -2 73 -4 89 -5 24 -1 27 -3 15 -12 -11 -8 -9 -9 10 -3 37 10 72 7 105 -10
17 -9 37 -16 44 -16 9 0 11 -3 5 -9 -16 -15 -78 -31 -139 -35 -66 -5 -75 -22
-10 -19 l40 2 -43 -19 c-24 -11 -67 -36 -96 -55 -46 -31 -57 -34 -80 -25 -34
13 -46 13 -46 0 0 -5 8 -10 18 -11 14 0 14 -2 -3 -9 -11 -4 -31 -6 -44 -3 -14
4 -22 2 -18 -4 3 -5 -3 -9 -15 -9 -12 1 -23 -5 -25 -11 -3 -9 10 -13 44 -14
26 -1 38 -4 27 -6 -12 -2 -24 -13 -27 -24 -3 -13 -14 -19 -32 -19 -19 0 -26
-4 -22 -14 8 -19 -9 -24 -55 -16 -58 11 -48 -14 13 -30 l51 -14 -33 -12 c-23
-7 -36 -8 -41 -1 -6 11 -39 11 -143 3 -43 -3 -53 -2 -35 4 22 8 20 9 -12 7
-21 -2 -38 1 -38 5 0 4 16 8 35 8 40 0 45 11 13 33 l-23 16 25 -6 c14 -3 33
-12 43 -18 21 -15 54 -9 80 13 26 23 20 37 -8 18 -32 -21 -45 -20 -40 3 3 17
-1 18 -37 13 -31 -4 -39 -2 -34 7 14 22 56 32 93 22 36 -10 63 -6 63 10 0 5
-11 9 -24 9 -13 0 -35 9 -49 20 -14 11 -33 20 -42 20 -9 0 -13 5 -10 10 3 6 1
10 -4 10 -6 0 -11 4 -11 9 0 15 71 1 106 -20 37 -23 62 -26 42 -6 -7 7 -22 18
-33 25 -17 10 -13 11 30 12 34 0 60 7 80 21 17 12 22 19 13 15 -20 -6 -25 10
-5 17 6 2 9 8 5 12 -4 4 -20 -4 -37 -17 -26 -23 -39 -25 -111 -25 -49 0 -77 3
-68 8 7 5 9 9 3 9 -5 0 -3 5 5 10 12 8 12 10 -5 10 -25 0 -59 -19 -35 -20 12
-1 11 -3 -3 -11 -19 -11 -41 -3 -32 12 4 5 -8 9 -26 9 -31 0 -32 1 -13 15 10
8 15 15 9 14 -5 -1 -21 -1 -35 0 -22 1 -23 3 -7 12 9 5 22 7 28 4 5 -4 16 -1
24 5 8 7 26 9 40 6 16 -4 25 -2 25 5 0 8 5 8 15 -1 9 -7 18 -10 22 -6 3 3 1 6
-5 6 -6 0 -9 7 -6 15 6 15 49 12 69 -6 15 -14 28 -10 21 6 -4 11 2 15 20 15
16 0 23 4 18 11 -4 8 1 9 16 4 15 -5 20 -4 16 4 -10 16 28 14 72 -4 28 -11 33
-12 20 -1 -10 7 -18 16 -18 20 0 11 66 6 78 -6z m582 -93 c108 -45 252 -129
365 -213 73 -54 225 -202 225 -218 0 -6 -9 -14 -21 -17 -15 -4 -19 -11 -15
-24 7 -24 -8 -47 -26 -40 -11 4 -15 -3 -16 -25 0 -16 -3 -32 -6 -35 -9 -9 16
-63 29 -63 18 0 47 -29 40 -40 -3 -5 -19 -11 -35 -15 -17 -4 -30 -11 -30 -16
0 -5 -7 -9 -16 -9 -34 0 -75 -70 -55 -94 9 -10 8 -15 -3 -19 -10 -4 -13 -1 -9
9 3 7 0 14 -6 14 -7 0 -14 -7 -17 -15 -4 -8 -15 -15 -25 -15 -11 0 -22 -7 -25
-15 -4 -8 -12 -15 -20 -15 -20 0 -17 -18 4 -23 12 -3 10 -5 -7 -6 -17 -1 -21
-5 -17 -17 3 -9 -1 -25 -9 -37 -8 -12 -15 -18 -15 -14 0 4 -25 -11 -55 -33
-30 -22 -61 -40 -69 -40 -25 0 -46 12 -46 26 0 8 -6 14 -14 14 -8 0 -23 18
-34 41 -17 33 -18 41 -6 46 8 3 14 12 14 20 0 9 -5 11 -12 6 -24 -14 -37 -11
-44 10 -3 12 -15 32 -26 43 -13 15 -16 24 -8 29 7 4 -1 18 -22 38 -62 59 -76
88 -70 145 2 29 11 57 18 63 8 6 14 18 14 25 0 8 5 14 10 14 6 0 10 7 10 15 0
8 -5 15 -11 15 -5 0 -7 5 -4 10 3 6 2 10 -3 10 -6 0 -13 12 -17 27 -18 72
-151 144 -228 122 -20 -5 -33 -5 -35 0 -2 6 -15 6 -32 -1 -20 -6 -35 -6 -47 1
-10 6 -12 11 -5 11 26 0 10 17 -25 26 l-38 10 68 8 c37 4 67 12 67 18 0 6 -17
8 -42 5 -47 -5 -138 20 -138 38 0 11 69 31 140 41 54 8 78 23 78 51 0 16 -5
22 -13 19 -8 -2 -26 -1 -41 3 -28 7 -28 7 19 30 26 13 54 21 61 18 8 -3 17 1
20 9 4 10 13 13 32 8 23 -6 25 -4 22 17 -2 17 2 24 17 27 49 7 65 13 60 21 -6
11 60 -9 145 -44z m-1050 -40 c13 -14 31 -25 41 -25 9 0 19 -7 23 -15 3 -8 10
-15 16 -15 6 0 8 5 5 10 -3 6 -2 10 4 10 6 0 13 -11 17 -24 4 -17 15 -26 37
-31 l32 -6 -35 -17 c-19 -10 -36 -14 -38 -10 -7 15 -20 8 -25 -13 -3 -12 -10
-18 -16 -15 -6 4 -19 2 -30 -4 -21 -11 -54 -3 -45 11 3 5 -4 9 -15 9 -11 0
-23 5 -26 10 -4 6 6 10 24 10 16 0 32 4 35 9 7 11 -39 22 -74 17 -14 -1 -33 5
-44 15 -18 17 -18 18 2 12 11 -2 23 0 26 6 4 6 1 11 -7 11 -8 0 -18 7 -21 16
-4 12 -1 14 14 9 21 -7 28 10 8 18 -7 3 -1 6 15 6 15 1 27 6 27 11 0 18 26 10
50 -15z m-203 -61 c-3 -3 -12 -4 -19 -1 -8 3 -5 6 6 6 11 1 17 -2 13 -5z m-20
-97 c18 -22 18 -22 -3 -4 -11 9 -27 17 -35 17 -12 0 -11 -2 1 -10 18 -12 2
-12 -25 0 -18 8 -18 9 -2 9 10 1 16 5 13 10 -12 18 33 -2 51 -22z m113 -8 c0
-5 -4 -9 -10 -9 -5 0 -10 5 -10 10 0 6 -12 10 -26 10 -14 0 -23 4 -19 9 7 12
65 -7 65 -20z m43 -36 c-7 -2 -21 -2 -30 0 -10 3 -4 5 12 5 17 0 24 -2 18 -5z
m107 -7 c0 -2 -7 -6 -15 -10 -8 -3 -15 -1 -15 4 0 6 7 10 15 10 8 0 15 -2 15
-4z m244 -105 c37 -15 28 -46 -15 -48 -28 -2 -30 -1 -10 5 64 19 15 49 -62 39
-29 -4 -36 -3 -22 3 27 12 78 12 109 1z m-864 -106 c0 -77 -3 -105 -12 -105
-10 0 -12 26 -11 102 1 57 2 104 3 106 0 1 5 2 10 2 6 0 10 -42 10 -105z m763
58 c-18 -2 -48 -2 -65 0 -18 2 -4 4 32 4 36 0 50 -2 33 -4z m206 -76 c7 -9 -1
-12 -27 -12 -38 1 -72 12 -72 24 0 11 89 0 99 -12z m70 -94 c8 -18 7 -21 -4
-16 -8 3 -12 9 -9 14 3 5 -2 9 -10 9 -8 0 -17 4 -20 8 -2 4 4 8 14 8 10 0 23
-10 29 -23z m76 -3 c3 -5 -1 -10 -9 -10 -9 0 -16 -4 -16 -10 0 -5 7 -10 15
-10 8 0 15 -7 15 -16 0 -14 2 -14 16 -3 24 20 58 23 50 4 -5 -15 5 -19 33 -16
7 2 10 -2 6 -8 -3 -6 -14 -11 -23 -12 -11 -1 -8 -4 8 -9 14 -4 18 -8 10 -9 -9
-1 -16 -10 -17 -20 -1 -14 7 -22 28 -26 16 -4 29 -10 29 -14 0 -4 24 -15 53
-24 81 -26 87 -33 55 -62 -16 -13 -28 -29 -28 -35 0 -8 -6 -7 -21 0 -12 7 -18
18 -15 26 4 10 -2 14 -19 14 -13 0 -27 5 -30 10 -9 15 -25 12 -25 -4 0 -8 -6
-16 -12 -18 -8 -3 -2 -14 16 -31 16 -15 32 -27 35 -27 3 0 15 -12 25 -27 11
-14 13 -23 6 -18 -10 6 -12 4 -7 -8 9 -23 -4 -28 -33 -11 l-25 15 25 -7 c21
-6 17 0 -21 38 -27 25 -50 58 -53 76 -4 17 -14 33 -22 36 -9 3 -12 11 -8 17 4
8 1 8 -15 0 -19 -11 -20 -10 -15 19 5 24 3 30 -10 30 -13 0 -15 -6 -11 -27 5
-28 5 -28 -5 -3 -13 29 -45 61 -54 53 -3 -4 -6 -1 -6 5 0 7 -5 12 -10 12 -6 0
-20 8 -31 18 -21 21 -17 54 7 45 8 -3 14 -1 14 5 0 6 13 13 29 17 16 3 32 13
35 21 6 16 22 18 31 4z m-218 -56 c-3 -3 -12 -4 -19 -1 -8 3 -5 6 6 6 11 1 17
-2 13 -5z m121 -119 c-3 -3 -9 2 -12 12 -6 14 -5 15 5 6 7 -7 10 -15 7 -18z
m149 -81 c-3 -3 -12 -4 -19 -1 -8 3 -5 6 6 6 11 1 17 -2 13 -5z m-1253 -101
c32 -29 52 -53 45 -53 -8 0 -6 -7 6 -20 10 -11 24 -20 32 -20 20 0 653 -620
686 -672 10 -16 23 -28 30 -28 22 0 99 -86 95 -106 -2 -14 -36 -27 -160 -60
-86 -23 -165 -47 -177 -53 -32 -17 -26 -45 23 -105 25 -30 43 -56 40 -59 -5
-4 157 -162 216 -210 269 -218 626 -364 974 -396 60 -6 112 -13 115 -17 6 -6
-101 2 -232 17 -271 33 -568 149 -809 319 -113 79 -289 247 -373 355 -34 44
-64 85 -68 91 -4 7 63 30 188 65 107 29 195 56 195 60 0 8 -858 844 -867 844
-4 0 -44 -144 -89 -320 -45 -176 -112 -438 -149 -583 -37 -145 -65 -265 -62
-268 3 -3 94 20 204 50 109 31 201 56 205 56 5 0 21 -23 82 -119 22 -34 -16 4
-45 45 -31 45 -31 45 -77 39 -43 -6 -127 -29 -326 -86 -37 -11 -74 -18 -81
-15 -10 3 6 82 66 318 43 172 79 325 79 340 0 15 4 29 9 32 5 3 9 16 9 28 0
27 118 533 132 566 6 13 14 22 19 20 4 -2 34 -27 65 -55z m1335 -46 c8 -11 4
-13 -22 -9 -27 4 -29 6 -12 13 11 4 21 8 21 8 1 1 6 -5 13 -12z m665 -13 c3
-8 2 -12 -4 -9 -6 3 -10 10 -10 16 0 14 7 11 14 -7z m-1658 -1413 c21 -25 32
-40 23 -35 -20 11 -88 89 -73 83 5 -2 28 -24 50 -48z m2500 -112 c10 -12 32
-28 49 -36 80 -41 104 -85 111 -206 l5 -93 -103 -51 c-333 -163 -735 -247
-1068 -222 -209 15 -358 43 -537 100 -98 32 -279 105 -298 122 -5 4 -55 33
-110 63 -55 30 -111 64 -125 75 l-25 21 28 -16 c523 -313 1120 -412 1673 -277
65 16 169 47 229 69 61 21 127 42 148 46 53 10 121 77 137 136 32 119 -46 232
-169 247 l-54 6 34 18 c44 23 52 23 75 -2z m-41 -102 c14 -11 16 -20 10 -43
-9 -29 -9 -29 -13 -4 -4 30 -28 51 -50 43 -10 -4 -13 -2 -8 5 10 16 38 15 61
-1z m-2174 -44 c13 -16 12 -17 -3 -4 -17 13 -22 21 -14 21 2 0 10 -8 17 -17z
m40 -30 c13 -16 12 -17 -3 -4 -10 7 -18 15 -18 17 0 8 8 3 21 -13z m2147 -25
c17 -17 15 -53 -5 -75 -10 -10 -15 -14 -10 -9 14 19 7 55 -15 76 -21 19 -21
20 -2 20 11 0 25 -5 32 -12z m-701 -4 c-3 -3 -12 -4 -19 -1 -8 3 -5 6 6 6 11
1 17 -2 13 -5z m662 -100 c2 -2 -10 -4 -27 -4 -18 0 -32 5 -32 10 0 9 47 4 59
-6z m-1272 -1670 c-3 -3 -12 -4 -19 -1 -8 3 -5 6 6 6 11 1 17 -2 13 -5z"/>
<path d="M2625 4460 c3 -5 14 -10 23 -10 15 0 15 2 2 10 -20 13 -33 13 -25 0z"/>
<path d="M3380 4765 c0 -2 10 -10 23 -16 20 -11 21 -11 8 4 -13 16 -31 23 -31
12z"/>
<path d="M2818 4263 c6 -2 18 -2 25 0 6 3 1 5 -13 5 -14 0 -19 -2 -12 -5z"/>
<path d="M5015 5481 c-151 -69 -153 -275 -4 -352 47 -24 181 -168 264 -284 36
-49 96 -151 134 -225 192 -378 246 -793 155 -1199 -14 -64 -29 -120 -33 -124
-5 -4 -82 43 -172 106 -90 63 -165 114 -167 112 -6 -5 -103 -1168 -100 -1192
3 -21 43 -4 551 235 301 141 546 260 545 264 -3 6 -302 217 -337 237 -11 7 -9
22 12 87 38 114 63 223 84 354 24 154 24 460 0 615 -72 457 -266 853 -580
1185 -56 58 -115 121 -132 140 -54 61 -142 77 -220 41z m117 -68 c10 -9 18
-26 18 -37 0 -21 -34 -86 -45 -86 -4 0 1 10 9 22 20 28 20 72 1 88 -8 7 -29
10 -46 8 -29 -5 -30 -4 -14 9 25 18 55 17 77 -4z m20 -185 c-12 -11 -121 -14
-112 -3 5 6 33 10 64 10 30 0 52 -3 48 -7z"/>
</g>
</svg>
